PathFileType	4	(X/Y/Z)	path1_23_0-642.trc
DataRate	CameraRate	NumFrames	NumMarkers	Units	OrigDataRate	OrigDataStartFrame	OrigNumFrames
30	30	7	22	m	30	0	642
Frame#	Time	Hip			RHip			RKnee			RAnkle			RBigToe			RSmallToe			RHeel			LHip			LKnee			LAnkle			LBigToe			LSmallToe			LHeel			Neck			Head			Nose			RShoulder			RElbow			RWrist			LShoulder			LElbow			LWrist		
		X1	Y1	Z1	X2	Y2	Z2	X3	Y3	Z3	X4	Y4	Z4	X5	Y5	Z5	X6	Y6	Z6	X7	Y7	Z7	X8	Y8	Z8	X9	Y9	Z9	X10	Y10	Z10	X11	Y11	Z11	X12	Y12	Z12	X13	Y13	Z13	X14	Y14	Z14	X15	Y15	Z15	X16	Y16	Z16	X17	Y17	Z17	X18	Y18	Z18	X19	Y19	Z19	X20	Y20	Z20	X21	Y21	Z21	X22	Y22	Z22
1	0.0333333333333333	2.5216295072348087	0.832808909993466	0.5794863342564366	2.5284314555883975	0.8067474577276148	0.5016906807463953	2.4933448361988204	0.46266089884340855	0.48968217288701604	2.553461762993486	0.09627395575657927	0.5265180993673105	2.3758078040061705	0.013808600271644747	0.490426700038968	2.4165757427794596	0.016713262620865862	0.4514240376380124	2.596550229051552	0.04471328222382807	0.5195156574791628	2.505170177299645	0.8054097879873223	0.6687501492833599	2.5094985830790364	0.4335009551419108	0.6420338159813662	2.56178498865931	0.08136271844956341	0.6358431087858533	2.3673521593560567	0.018257696015816408	0.6622419246792665	2.414524557148143	0.020771895371701335	0.7238058868975522	2.615608866904487	0.03307257778483586	0.6581703946721504	2.4960615957168537	1.4764808049921658	0.5789776929764398	2.4324888247205028	1.698921126417386	0.5564480188646262	2.3675536280064944	1.6149410553133865	0.5458801613871895	2.5380856654399744	1.3760708220438107	0.42041672476822306	2.553909317291727	1.0721139643661222	0.4012737275124816	2.50784341180852	0.8326410412077281	0.3696507555104739	2.4947850760364103	1.3543359642727335	0.7531102371570348	2.535861033247468	1.0732555595628162	0.7794827974133568	2.5210893606241522	0.8322021238859305	0.7819815071482251
2	0.0666666666666666	2.520846343606541	0.8344914585693759	0.5784910501125888	2.525233401624167	0.8084894286812313	0.49782851480330764	2.497617846623624	0.4614864820338366	0.49402775371038277	2.556786540196871	0.0975093462419251	0.5294848947305211	2.3711602022235647	0.022721917357974162	0.49588311167675386	2.4131525793772273	0.01910545272119113	0.45079785261755145	2.59986974657426	0.04149278305996293	0.5255022627653239	2.504272690029776	0.8085364562455222	0.6625668704239509	2.5088355657178396	0.4359449475734911	0.6366428943824554	2.5592832480947516	0.08459370000527669	0.634155475619563	2.3704545613641077	0.020021067751722164	0.662594840517402	2.4163174646952386	0.01986650966692713	0.7180593635552565	2.6043843754422555	0.03519607275705504	0.6511269273282382	2.4964095293944646	1.474683377692992	0.5811764191139575	2.4472698596912443	1.7127256904221961	0.5462045734784996	2.368930763449298	1.6143959659359146	0.5500458290164926	2.536837165944071	1.375394955375547	0.4166042221409804	2.5485694213151064	1.0729114734989729	0.38998846408367493	2.506830150970069	0.837274408182037	0.36586756128077974	2.491766829995305	1.3547442239494913	0.7510812967255458	2.5343805829154706	1.0742183931880844	0.7764766697024179	2.5201103950931403	0.8355861887610361	0.7793611748654462
3	0.1	2.5201527228889655	0.8358772139911262	0.5775575256365815	2.5225890653193987	0.8099524605030919	0.4945414801100026	2.5014925287366907	0.46033064955323144	0.49803189422885014	2.5596126415613623	0.09859188784490594	0.5317829936454233	2.3672914493824755	0.030134254356156596	0.5002341517537822	2.410469691189075	0.021130007028682472	0.45030868444807176	2.6030493205463414	0.03882978075762032	0.5304043078468893	2.502957985385316	0.8111614012361691	0.6574393031272263	2.5078902749680823	0.4380201500274527	0.6323734168750259	2.556967757712854	0.08732135035120353	0.6329092818799577	2.373032478109488	0.02154428961267802	0.6629534801895656	2.4177099329218583	0.019367226623334444	0.7134474621824313	2.5943757213605414	0.03735338364348337	0.6450159114769827	2.496670348049418	1.4732059027952193	0.5828276302229399	2.4589134629952305	1.723841038762563	0.5379690735261263	2.369918894773592	1.6138250263078235	0.5533648140184962	2.5357212504806173	1.3748113124716195	0.41317816715922157	2.544984810726618	1.073413262854596	0.3818350247368972	2.5059222359762097	0.8410827545415105	0.36268495739741424	2.489431358597675	1.3551301835342944	0.7492995665131925	2.533095615287528	1.0749021820376117	0.773928499988818	2.519117130754688	0.8383435364345125	0.7771854359529381
4	0.1333333333333333	2.519627930526992	0.8367955660390025	0.5767741144063648	2.5207740223651327	0.811010112163569	0.4922378265808223	2.5042584269216204	0.4594841745970003	0.500891781869542	2.561632068788331	0.09939182064858329	0.5331280815702215	2.3645483442572335	0.03549109656575988	0.502987113133511	2.408750326440462	0.02251828644205905	0.44999299918779323	2.6057532160031194	0.03700212006922496	0.5334163597859785	2.501299790500752	0.8130187664161176	0.6539748184253741	2.5067398397948373	0.4395587050288136	0.6297056659073272	2.5550088329034057	0.08930059500856379	0.6323128116814718	2.374851291181785	0.022658214108786483	0.6634678726194577	2.4185803605677174	0.019164744739656934	0.7104085671902953	2.5866511667064724	0.0393124145488152	0.6404860741122581	2.4967743520927246	1.4722218224745374	0.5836211303347155	2.466131217639191	1.7311011731735664	0.5327898865206246	2.3703456543149435	1.6132783378580218	0.5554823767968805	2.534832984540016	1.3743373222647717	0.4104451613341946	2.543256308953304	1.0735654544332747	0.3772583151688882	2.505194202935853	0.8436357435548472	0.36038035789419526	2.488031806708473	1.3554804304171697	0.7479296714349914	2.532063685612399	1.0752033931554559	0.772101555923558	2.5181875966483522	0.8401821875655147	0.7756858966650526
5	0.1666666666666666	2.5192988673679477	0.8372421327775051	0.5761944404048699	2.5197025265498594	0.811745208303123	0.49098072651445246	2.5052276740655035	0.45934074862788	0.5017244519319498	2.5628228254913266	0.09985091264299886	0.5336929078311338	2.362861485469326	0.03902160371746415	0.5043431991730184	2.407814106650538	0.023228782436967785	0.4498803519460926	2.6077496750961493	0.035923414463235076	0.5344341302283648	2.4997159450783264	0.8141700621791179	0.6521417021469853	2.50567378933996	0.44061672113930583	0.628409367431969	2.553542407996734	0.09057257616164062	0.6322739131727115	2.376004805613696	0.02332194560274889	0.6643440525452443	2.418998856324473	0.01911847561800705	0.7089104051061355	2.5817298234274655	0.04074482550395578	0.6376529033393273	2.4967255222746276	1.4717020189904417	0.583575140538385	2.469444313089279	1.7349161901360692	0.5306064337836927	2.370275711214807	1.612809472086712	0.5565047907381298	2.5341803659014004	1.373943541033572	0.408563238797337	2.542167829125452	1.0735202132840995	0.374419449808926	2.504661427612285	0.8449426873281914	0.3588704611529491	2.4874184235736525	1.3557912844565128	0.7469937738723675	2.531203031815388	1.0752146735223187	0.7710193546259945	2.517413616622732	0.8411664270434106	0.7748547189616162
6	0.2	2.5191291750735028	0.83733120519273	0.5758165424177214	2.5190941889612066	0.8122933301194681	0.4905475989804351	2.504231701546248	0.4600622948169316	0.5002487202507286	2.5633678806989284	0.1000034506659169	0.5338705528093525	2.362011050731266	0.04105461980192	0.504866290750301	2.407425983714328	0.023425988227349887	0.4500265137852157	2.6091169925714497	0.03533450373974836	0.5341953170286081	2.498566718966532	0.8148335684764957	0.6514964617039496	2.5048929339193875	0.44129992581945715	0.6279906500052267	2.5526275699330903	0.09131575214428012	0.6325628308969687	2.376742763390515	0.023592602816783388	0.6656127190977557	2.419070738950366	0.01932591214079377	0.7087116406509018	2.5793694961864024	0.04149609577917129	0.6361744701098468	2.496572951773882	1.4714956566416417	0.5829313237186871	2.470099349805364	1.7363493079506427	0.5305885977075966	2.3698823688041086	1.6123982821328986	0.5567159567120846	2.5336970735734483	1.3736046432340694	0.40751796457039957	2.54066791662065	1.0734352508759195	0.37152800558712384	2.5042574965065536	0.8452733017483667	0.3579140452258332	2.4872832177749755	1.3560649009421961	0.746404602993694	2.530409095718367	1.0751109736304851	0.770556237045962	2.5168049303938833	0.8415364737670404	0.7745898505688809
7	0.2333333333333333	2.519036338993147	0.8372092417984107	0.5756373302176386	2.518699345807013	0.8126723821919657	0.49066197018553587	2.501758041509872	0.4614379958011593	0.4970596424344703	2.5634853736063743	0.09994495601345987	0.5339718536717074	2.3617657709034905	0.04183068337232519	0.5050978101725844	2.4074735869783987	0.02331391121906641	0.45047655204818143	2.6100743082226914	0.03503660837249865	0.5338684928881768	2.497945756924165	0.815154911158559	0.6515702627211954	2.5044417259757057	0.44164028360471597	0.6280642067683242	2.552199057997176	0.09171827570689543	0.6329761709365456	2.3772423068168687	0.023527445067721815	0.6669863644646085	2.418921755214613	0.019719916571989543	0.7092677300148091	2.5788282216104403	0.04163469929679894	0.635570948334818	2.4963188266712235	1.4714415984794371	0.5819840845518721	2.4692966074249214	1.7364056428012868	0.5315739036813194	2.3693166581393132	1.6119890021516181	0.5563928538228792	2.5333268420807897	1.3733117915833017	0.4071512393187202	2.5384534555601057	1.0734157007252105	0.3678934525852158	2.5038706700501057	0.8449816651138323	0.3573099196845211	2.487323435960681	1.356312487084966	0.7460534769409896	2.529650090155258	1.0750279256391988	0.7705547505136379	2.5162939681460905	0.8415449789137601	0.7747894642695703
